<svg width="70" height="70" viewBox="0 0 70 70" fill="none" xmlns="http://www.w3.org/2000/svg">
<rect y="-0.00012207" width="70" height="70" fill="#DEA978"/>
<path fill-rule="evenodd" clip-rule="evenodd" d="M6 64V69.9999H7V64H13V69.9999H14V64H20V69.9999H21V64H27V69.9999H28V64H34V69.9999H35V64H41V69.9999H42V64H48V69.9999H49V64H55V69.9999H56V64H62V69.9999H63V64H70V63H63V57H70V56H63V50H70V49H63V43H70V42H63V36H70V35H63V29H70V28H63V22H70V21H63V15H70V14H63V8H70V7H63V-0.00012207H62V7H56V-0.00012207H55V7L49 7V-0.00012207H48V7H42V-0.00012207H41V7H35V-0.00012207H34V7H28V-0.00012207H27V7H21V-0.00012207H20V7H14V-0.00012207H13V7L7 7V-0.00012207H6V7L0 7V8H6V14H0V15H6V21H0V22H6V28H0V29H6V35H0V36H6V42H0V43H6V49H0V50H6V56H0V57H6V63H0V64H6ZM7 63H13V57H7V63ZM14 63H20V57H14V63ZM21 63H27V57H21V63ZM28 63H34V57H28V63ZM35 63H41V57H35V63ZM42 63H48V57H42V63ZM49 63H55V57H49V63ZM56 63H62V57H56V63ZM62 50V56H56V50H62ZM62 43V49H56V43H62ZM62 36V42H56V36H62ZM62 29V35H56V29H62ZM62 22V28H56V22H62ZM62 15V21H56V15H62ZM62 8V14H56V8H62ZM7 43V49H13V43H7ZM14 43V49H20V43H14ZM20 42H14V36H20V42ZM21 43V49H27V43H21ZM27 42H21V36H27V42ZM28 43V49H34V43H28ZM34 42H28V36H34V42ZM35 43V49H41V43H35ZM41 42H35V36H41V42ZM42 43V49H48V43H42ZM48 42H42V36H48V42ZM49 43V49H55V43H49ZM55 42H49V36H55V42ZM13 42H7V36H13V42ZM48 56H42V50H48V56ZM41 56V50H35V56H41ZM48 35H42V29H48V35ZM41 35V29H35V35H41ZM48 28H42V22H48V28ZM41 28V22H35V28H41ZM48 21H42V15H48V21ZM41 21V15H35V21H41ZM48 14H42V8H48V14ZM41 14V8H35V14H41ZM7 22V28H13V22H7ZM14 22V28H20V22L14 22ZM20 21L14 21V15H20V21ZM21 22V28H27V22H21ZM27 21H21V15H27V21ZM28 22V28H34V22H28ZM34 21H28V15H34V21ZM49 22V28H55V22L49 22ZM55 21L49 21V15H55V21ZM13 21H7V15L13 15V21ZM27 56H21V50H27V56ZM20 56V50H14V56H20ZM27 35H21V29H27V35ZM20 35V29H14V35H20ZM27 14H21V8H27V14ZM20 14V8H14V14H20ZM7 56H13V50H7V56ZM28 56H34V50H28V56ZM49 56H55V50H49V56ZM55 29V35H49V29H55ZM55 8V14H49V8H55ZM34 35H28V29H34V35ZM13 35H7V29H13V35ZM34 14V8H28V14H34ZM13 14L7 14V8H13V14Z" fill="#713906" fill-opacity="0.5"/>
<rect x="6" y="5.99988" width="58" height="58" rx="29" fill="#FF5555" stroke="#FF2525" stroke-width="5"/>
</svg>
