<svg width="70" height="70" viewBox="0 0 70 70" fill="none" xmlns="http://www.w3.org/2000/svg">
<rect width="70" height="70" fill="#DEA978"/>
<path fill-rule="evenodd" clip-rule="evenodd" d="M6 64.0001V70H7V64.0001H13V70H14V64.0001H20V70H21V64.0001H27V70H28V64.0001H34V70H35V64.0001H41V70H42V64.0001H48V70H49V64.0001H55V70H56V64.0001H62V70H63V64.0001H70V63.0001H63V57.0001H70V56.0001H63V50.0001H70V49.0001H63V43.0001H70V42.0001H63V36.0001H70V35.0001H63V29.0001H70V28.0001H63V22.0001H70V21.0001H63V15.0001H70V14.0001H63V8.00012H70V7.00012H63V0H62V7.00012H56V0H55V7.00012L49 7.00012V0H48V7.00012H42V0H41V7.00012H35V0H34V7.00012H28V0H27V7.00012H21V0H20V7.00012H14V0H13V7.00012L7 7.00012V0H6V7.00012L0 7.00012V8.00012H6V14.0001H0V15.0001H6V21.0001H0V22.0001H6V28.0001H0V29.0001H6V35.0001H0V36.0001H6V42.0001H0V43.0001H6V49.0001H0V50.0001H6V56.0001H0V57.0001H6V63.0001H0V64.0001H6ZM7 63.0001H13V57.0001H7V63.0001ZM14 63.0001H20V57.0001H14V63.0001ZM21 63.0001H27V57.0001H21V63.0001ZM28 63.0001H34V57.0001H28V63.0001ZM35 63.0001H41V57.0001H35V63.0001ZM42 63.0001H48V57.0001H42V63.0001ZM49 63.0001H55V57.0001H49V63.0001ZM56 63.0001H62V57.0001H56V63.0001ZM62 50.0001V56.0001H56V50.0001H62ZM62 43.0001V49.0001H56V43.0001H62ZM62 36.0001V42.0001H56V36.0001H62ZM62 29.0001V35.0001H56V29.0001H62ZM62 22.0001V28.0001H56V22.0001H62ZM62 15.0001V21.0001H56V15.0001H62ZM62 8.00012V14.0001H56V8.00012H62ZM7 43.0001V49.0001H13V43.0001H7ZM14 43.0001V49.0001H20V43.0001H14ZM20 42.0001H14V36.0001H20V42.0001ZM21 43.0001V49.0001H27V43.0001H21ZM27 42.0001H21V36.0001H27V42.0001ZM28 43.0001V49.0001H34V43.0001H28ZM34 42.0001H28V36.0001H34V42.0001ZM35 43.0001V49.0001H41V43.0001H35ZM41 42.0001H35V36.0001H41V42.0001ZM42 43.0001V49.0001H48V43.0001H42ZM48 42.0001H42V36.0001H48V42.0001ZM49 43.0001V49.0001H55V43.0001H49ZM55 42.0001H49V36.0001H55V42.0001ZM13 42.0001H7V36.0001H13V42.0001ZM48 56.0001H42V50.0001H48V56.0001ZM41 56.0001V50.0001H35V56.0001H41ZM48 35.0001H42V29.0001H48V35.0001ZM41 35.0001V29.0001H35V35.0001H41ZM48 28.0001H42V22.0001H48V28.0001ZM41 28.0001V22.0001H35V28.0001H41ZM48 21.0001H42V15.0001H48V21.0001ZM41 21.0001V15.0001H35V21.0001H41ZM48 14.0001H42V8.00012H48V14.0001ZM41 14.0001V8.00012H35V14.0001H41ZM7 22.0001V28.0001H13V22.0001H7ZM14 22.0001V28.0001H20V22.0001L14 22.0001ZM20 21.0001L14 21.0001V15.0001H20V21.0001ZM21 22.0001V28.0001H27V22.0001H21ZM27 21.0001H21V15.0001H27V21.0001ZM28 22.0001V28.0001H34V22.0001H28ZM34 21.0001H28V15.0001H34V21.0001ZM49 22.0001V28.0001H55V22.0001L49 22.0001ZM55 21.0001L49 21.0001V15.0001H55V21.0001ZM13 21.0001H7V15.0001L13 15.0001V21.0001ZM27 56.0001H21V50.0001H27V56.0001ZM20 56.0001V50.0001H14V56.0001H20ZM27 35.0001H21V29.0001H27V35.0001ZM20 35.0001V29.0001H14V35.0001H20ZM27 14.0001H21V8.00012H27V14.0001ZM20 14.0001V8.00012H14V14.0001H20ZM7 56.0001H13V50.0001H7V56.0001ZM28 56.0001H34V50.0001H28V56.0001ZM49 56.0001H55V50.0001H49V56.0001ZM55 29.0001V35.0001H49V29.0001H55ZM55 8.00012V14.0001H49V8.00012H55ZM34 35.0001H28V29.0001H34V35.0001ZM13 35.0001H7V29.0001H13V35.0001ZM34 14.0001V8.00012H28V14.0001H34ZM13 14.0001L7 14.0001V8.00012H13V14.0001Z" fill="#713906" fill-opacity="0.5"/>
<rect x="6" y="6" width="58" height="58" rx="29" fill="#3787FF" stroke="#0569FF" stroke-width="5"/>
</svg>
