<svg width="15" height="70" viewBox="0 0 15 70" fill="none" xmlns="http://www.w3.org/2000/svg">
<rect x="14" y="1" width="68" height="13" transform="rotate(90 14 1)" fill="#A85D5D" stroke="#7C0E0E" stroke-width="2"/>
<line x1="13" y1="5.5" x2="2" y2="5.5" stroke="#7C0E0E"/>
<line x1="13" y1="17.5" x2="2" y2="17.5" stroke="#7C0E0E"/>
<line x1="13" y1="29.5" x2="2" y2="29.5" stroke="#7C0E0E"/>
<line x1="13" y1="41.5" x2="2" y2="41.5" stroke="#7C0E0E"/>
<line x1="13" y1="9.5" x2="2" y2="9.5" stroke="#7C0E0E"/>
<line x1="13" y1="21.5" x2="2" y2="21.5" stroke="#7C0E0E"/>
<line x1="13" y1="33.5" x2="2" y2="33.5" stroke="#7C0E0E"/>
<line x1="13" y1="45.5" x2="2" y2="45.5" stroke="#7C0E0E"/>
<line x1="13" y1="57.5" x2="2" y2="57.5" stroke="#7C0E0E"/>
<line x1="13" y1="13.5" x2="2" y2="13.5" stroke="#7C0E0E"/>
<line x1="13" y1="25.5" x2="2" y2="25.5" stroke="#7C0E0E"/>
<line x1="13" y1="37.5" x2="2" y2="37.5" stroke="#7C0E0E"/>
<line x1="13" y1="49.5" x2="2" y2="49.5" stroke="#7C0E0E"/>
<line x1="13" y1="61.5" x2="2" y2="61.5" stroke="#7C0E0E"/>
<line x1="13" y1="53.5" x2="2" y2="53.5" stroke="#7C0E0E"/>
<line x1="13" y1="65.5" x2="2" y2="65.5" stroke="#7C0E0E"/>
<line x1="7.5" y1="68" x2="7.5" y2="66" stroke="#7C0E0E"/>
<line x1="7.5" y1="61" x2="7.5" y2="58" stroke="#7C0E0E"/>
<line x1="7.5" y1="29" x2="7.5" y2="26" stroke="#7C0E0E"/>
<line x1="7.5" y1="45" x2="7.5" y2="42" stroke="#7C0E0E"/>
<line x1="7.5" y1="13" x2="7.5" y2="10" stroke="#7C0E0E"/>
<line x1="7.5" y1="53" x2="7.5" y2="50" stroke="#7C0E0E"/>
<line x1="7.5" y1="21" x2="7.5" y2="18" stroke="#7C0E0E"/>
<line x1="7.5" y1="37" x2="7.5" y2="34" stroke="#7C0E0E"/>
<line x1="7.5" y1="5" x2="7.5" y2="2" stroke="#7C0E0E"/>
<line x1="10.5" y1="65" x2="10.5" y2="62" stroke="#7C0E0E"/>
<line x1="10.5" y1="57" x2="10.5" y2="54" stroke="#7C0E0E"/>
<line x1="10.5" y1="25" x2="10.5" y2="22" stroke="#7C0E0E"/>
<line x1="10.5" y1="41" x2="10.5" y2="38" stroke="#7C0E0E"/>
<line x1="10.5" y1="9" x2="10.5" y2="6" stroke="#7C0E0E"/>
<line x1="10.5" y1="49" x2="10.5" y2="46" stroke="#7C0E0E"/>
<line x1="10.5" y1="17" x2="10.5" y2="14" stroke="#7C0E0E"/>
<line x1="10.5" y1="33" x2="10.5" y2="30" stroke="#7C0E0E"/>
<line x1="4.5" y1="65" x2="4.5" y2="62" stroke="#7C0E0E"/>
<line x1="4.5" y1="57" x2="4.5" y2="54" stroke="#7C0E0E"/>
<line x1="4.5" y1="25" x2="4.5" y2="22" stroke="#7C0E0E"/>
<line x1="4.5" y1="41" x2="4.5" y2="38" stroke="#7C0E0E"/>
<line x1="4.5" y1="9" x2="4.5" y2="6" stroke="#7C0E0E"/>
<line x1="4.5" y1="49" x2="4.5" y2="46" stroke="#7C0E0E"/>
<line x1="4.5" y1="17" x2="4.5" y2="14" stroke="#7C0E0E"/>
<line x1="4.5" y1="33" x2="4.5" y2="30" stroke="#7C0E0E"/>
</svg>
