<svg width="15" height="15" viewBox="0 0 15 15" fill="none" xmlns="http://www.w3.org/2000/svg">
<rect x="1" y="1" width="13" height="13" fill="#FFB800" stroke="black" stroke-width="2"/>
<path d="M2.25 2.25H4.5C5.74264 2.25 6.75 3.25736 6.75 4.5C6.75 5.74264 5.74264 6.75 4.5 6.75C3.25736 6.75 2.25 5.74264 2.25 4.5V2.25Z" fill="#FFE7AB" stroke="black" stroke-width="0.5"/>
<path d="M12.75 2.25L12.75 4.5C12.75 5.74264 11.7426 6.75 10.5 6.75C9.25736 6.75 8.25 5.74264 8.25 4.5C8.25 3.25736 9.25736 2.25 10.5 2.25L12.75 2.25Z" fill="#FFE7AB" stroke="black" stroke-width="0.5"/>
<path d="M12.75 12.75L10.5 12.75C9.25736 12.75 8.25 11.7426 8.25 10.5C8.25 9.25736 9.25736 8.25 10.5 8.25C11.7426 8.25 12.75 9.25736 12.75 10.5L12.75 12.75Z" fill="#FFE7AB" stroke="black" stroke-width="0.5"/>
<path d="M2.25 12.75L2.25 10.5C2.25 9.25736 3.25736 8.25 4.5 8.25C5.74264 8.25 6.75 9.25736 6.75 10.5C6.75 11.7426 5.74264 12.75 4.5 12.75L2.25 12.75Z" fill="#FFE7AB" stroke="black" stroke-width="0.5"/>
</svg>
